<?xml version="1.0" encoding="utf-8"?>
<!-- Generator: Adobe Illustrator 17.0.0, SVG Export Plug-In . SVG Version: 6.00 Build 0)  -->
<!DOCTYPE svg PUBLIC "-//W3C//DTD SVG 1.1//EN" "http://www.w3.org/Graphics/SVG/1.1/DTD/svg11.dtd">
<svg version="1.1" id="Layer_1" xmlns="http://www.w3.org/2000/svg" xmlns:xlink="http://www.w3.org/1999/xlink" x="0px" y="0px"
	 width="111.337px" height="128.559px" viewBox="0 0 111.337 128.559" enable-background="new 0 0 111.337 128.559"
	 xml:space="preserve">
<polygon fill="#59B300" points="55.667,0 42.819,7.417 38.568,9.871 38.568,19.813 38.568,24.716 38.568,34.665 38.568,39.461 
	42.722,37.063 55.585,29.636 55.669,29.588 68.438,22.216 68.445,22.213 72.769,19.715 81.293,14.795 72.769,9.874 68.522,7.421 
	55.674,14.839 55.669,14.844 55.669,14.843 55.669,14.837 55.669,0.001 "/>
<polygon fill="#FAAF00" points="17.096,22.269 12.855,24.716 12.855,39.561 0,32.138 0,46.983 0,51.87 8.538,56.799 12.855,59.292 
	21.463,64.261 25.712,66.715 25.712,61.808 25.712,46.984 25.626,46.934 25.712,46.884 25.712,32.138 25.712,27.243 25.712,17.294 
	"/>
<polygon fill="#F25705" points="0,76.653 0,81.57 12.856,88.993 12.86,88.995 12.856,88.997 0,96.419 12.856,103.841 
	17.052,106.264 25.712,101.264 29.908,98.841 29.911,98.84 38.568,93.841 42.764,91.418 38.568,88.997 25.712,81.574 25.712,81.57 
	12.856,74.147 8.598,71.689 0,66.725 "/>
<polygon fill="#D50000" points="68.538,91.439 55.672,98.867 55.669,98.869 55.642,98.854 42.789,106.274 42.785,106.276 
	38.568,108.711 29.931,113.699 38.568,118.686 42.807,121.134 55.664,113.71 55.667,113.709 55.669,113.708 55.672,113.712 
	55.669,113.714 55.669,128.559 68.527,121.134 72.769,118.686 72.769,108.738 72.769,103.841 72.769,103.836 72.769,93.882 
	72.769,88.996 "/>
<polygon fill="#BE0048" points="85.624,66.673 85.624,81.544 85.624,81.574 85.624,96.413 85.624,96.419 85.624,101.305 
	85.624,111.263 94.25,106.284 98.48,103.841 98.48,88.997 98.476,88.994 98.48,88.99 98.48,88.997 111.336,96.419 111.336,76.678 
	102.693,71.689 98.48,69.256 89.815,64.253 85.624,61.834 "/>
<path fill="#00C4E1" d="M98.48,39.561v-0.007l0.007,0.004L98.48,39.561z M85.624,27.218l-4.256,2.457l-0.006,0.004l-8.594,4.961
	l-4.259,2.459l4.259,2.459l12.856,7.422l0.003,0.002l12.853,7.42l4.199,2.425l8.657,4.998V46.977l-12.849-7.419l12.847-7.418
	L98.48,24.719l-4.264-2.462L85.624,27.218z"/>
<polyline fill="#B7011A" points="55.666,113.71 55.668,113.709 55.668,98.87 55.642,98.855 42.788,106.275 42.785,106.277 
	38.568,108.712 29.93,113.699 38.568,118.687 42.807,121.134 55.663,113.711 "/>
<polygon fill="#01A4C7" points="98.481,39.562 85.627,46.983 98.481,54.403 102.68,56.828 111.337,61.825 111.337,46.977 
	98.487,39.558 "/>
<polygon fill="#D50000" points="68.538,91.439 55.672,98.867 55.669,98.869 55.669,113.709 55.672,113.712 55.669,113.714 
	55.669,128.559 68.528,121.134 72.769,118.686 72.769,108.738 72.769,103.841 72.769,103.836 72.769,93.882 72.769,88.996 "/>
<polyline fill="#95063B" points="98.475,88.994 85.624,81.575 85.624,96.413 85.624,96.419 85.624,101.305 85.624,111.264 
	94.249,106.285 98.481,103.842 98.481,88.997 "/>
<polygon fill="#80C304" points="55.667,0 42.819,7.417 38.569,9.871 38.569,19.813 38.569,24.716 38.569,34.665 38.569,39.461 
	42.722,37.063 55.585,29.637 55.669,29.588 55.669,14.844 55.669,14.843 55.669,14.837 55.669,0.001 "/>
<polyline fill="#59B300" points="55.668,14.844 55.668,29.589 68.438,22.217 68.444,22.213 72.769,19.716 81.292,14.795 
	72.769,9.874 68.522,7.422 55.674,14.84 "/>
<polygon fill="#F57F03" points="12.86,88.995 12.855,88.997 0,96.419 12.855,103.841 17.052,106.264 25.712,101.264 29.908,98.841 
	29.91,98.84 38.568,93.841 42.764,91.419 38.568,88.997 25.712,81.574 "/>
<polygon fill="#F25705" points="0,76.653 0,81.57 12.856,88.993 12.86,88.995 25.712,81.574 25.712,81.57 12.856,74.147 
	8.598,71.689 0,66.725 "/>
<polygon fill="#00C4E1" points="85.624,27.218 81.368,29.675 81.362,29.679 72.768,34.64 68.51,37.099 72.768,39.558 85.624,46.98 
	85.627,46.982 98.48,39.561 98.48,39.554 98.487,39.558 111.334,32.14 98.48,24.72 94.216,22.257 "/>
<polygon fill="#FFDC0C" points="0,46.983 0,51.87 8.538,56.799 12.856,59.292 21.463,64.261 25.712,66.715 25.712,61.808 
	25.712,46.984 25.626,46.934 12.856,39.562 12.856,39.561 0,32.138 "/>
<polygon fill="#FAAF00" points="17.096,22.269 12.856,24.717 12.856,39.561 12.856,39.562 25.625,46.935 25.712,46.884 
	25.712,32.139 25.712,27.244 25.712,17.294 "/>
<polygon fill="#BE0048" points="85.624,66.673 85.624,81.544 85.624,81.574 98.475,88.994 98.48,88.99 98.48,88.997 111.336,96.419 
	111.336,76.678 102.693,71.689 98.48,69.256 89.815,64.253 85.624,61.834 "/>
</svg>
